# xmcd CD database file
#
# Track frame offsets:
#	150
#	18654
#	39204
#	54138
#	77640
#	104711
#	123529
#	140911
#	164545
#	191256
#
# Disc length: 2881 seconds
#
# Revision: 0
# Processed by: cddbd v1.5.1PL2 Copyright (c) Steve Scherf et al.
# Submitted via: CDex 1.60beta1-cs1
#
DISCID=840b3f0a
DTITLE=Kevin Kendle - Autumn
DYEAR=1993
DGENRE=New Age
TTITLE0=Autumn
TTITLE1=Golden Fields
TTITLE2=Falling Leaves
TTITLE3=Bonfires
TTITLE4=Keepers Cottage
TTITLE5=Pastel Mists
TTITLE6=October Trees
TTITLE7=Twilight Plough
TTITLE8=Fading Light
TTITLE9=Rooks Return
EXTD=YEAR: 1993
EXTT0=
EXTT1=
EXTT2=
EXTT3=
EXTT4=
EXTT5=
EXTT6=
EXTT7=
EXTT8=
EXTT9=
PLAYORDER=
